<?xml version="1.0" encoding="utf-8"?>
<!-- Generator: Adobe Illustrator 26.2.1, SVG Export Plug-In . SVG Version: 6.00 Build 0)  -->
<svg version="1.1" id="Layer_1" xmlns="http://www.w3.org/2000/svg" xmlns:xlink="http://www.w3.org/1999/xlink" x="0px" y="0px"
	 viewBox="0 0 371.4 47.8" style="enable-background:new 0 0 371.4 47.8;" xml:space="preserve">
<style type="text/css">
	.st0{fill:#FFFFFF;}
</style>
<g>
	<polygon class="st0" points="96.2,47.3 96.2,12.4 103.5,12.4 103.5,26.8 118.5,26.8 118.5,12.4 125.9,12.4 125.9,47.3 118.5,47.3 
		118.5,32.9 103.5,32.9 103.5,47.3 	"/>
	<path class="st0" d="M154.9,27.2c-1-2-2.5-3.6-4.5-4.7c-1.9-1.1-4.2-1.7-6.8-1.7s-4.9,0.6-6.9,1.7c-1.9,1.1-3.4,2.7-4.4,4.7
		s-1.6,4.4-1.6,7.1s0.5,5,1.6,7.1c1,2,2.5,3.6,4.4,4.7s4.2,1.7,6.9,1.7s4.9-0.6,6.8-1.7c1.9-1.1,3.4-2.7,4.5-4.7
		c1-2,1.6-4.4,1.6-7.1C156.5,31.6,156,29.2,154.9,27.2z M148.5,38.3c-0.4,1.2-1,2.1-1.8,2.8c-0.8,0.7-1.8,1-3,1s-2.2-0.3-3.1-1
		c-0.8-0.7-1.4-1.6-1.9-2.8c-0.4-1.2-0.6-2.5-0.6-4.1s0.2-2.9,0.6-4.1c0.4-1.2,1-2.1,1.9-2.8c0.8-0.7,1.9-1,3.1-1c1.2,0,2.2,0.3,3,1
		c0.8,0.7,1.4,1.6,1.8,2.8c0.4,1.2,0.6,2.5,0.6,4.1S148.9,37.1,148.5,38.3z"/>
	<rect x="159.4" y="21.1" class="st0" width="15.8" height="5.5"/>
	<path class="st0" d="M163,14.8h7.3v24.4c0,0.7,0.1,1.2,0.3,1.6s0.5,0.6,0.9,0.8c0.4,0.1,0.8,0.2,1.3,0.2c0.3,0,0.7,0,1-0.1
		s0.6-0.1,0.8-0.2l1.1,5.4c-0.4,0.1-0.9,0.2-1.5,0.4c-0.7,0.2-1.5,0.3-2.4,0.3c-1.7,0.1-3.3-0.2-4.6-0.7s-2.3-1.4-3-2.5
		s-1.1-2.5-1.1-4.3V14.8H163z"/>
	<path class="st0" d="M191.5,47.8c-2.7,0-5-0.5-6.9-1.6s-3.4-2.7-4.5-4.7c-1-2-1.6-4.4-1.6-7.2c0-2.7,0.5-5.1,1.6-7.1
		c1-2,2.5-3.6,4.4-4.8c1.9-1.1,4.1-1.7,6.7-1.7c1.7,0,3.3,0.3,4.8,0.8s2.8,1.4,3.9,2.5c1.1,1.1,2,2.5,2.6,4.2
		c0.6,1.7,0.9,3.6,0.9,5.8v2h-22.1v-4.5h15.3c0-1-0.2-2-0.7-2.8s-1.1-1.4-1.9-1.9c-0.8-0.5-1.7-0.7-2.8-0.7s-2.1,0.3-2.9,0.8
		c-0.8,0.5-1.5,1.2-2,2s-0.7,1.8-0.7,2.8V36c0,1.3,0.2,2.4,0.7,3.4c0.5,0.9,1.2,1.7,2.1,2.2c0.9,0.5,1.9,0.8,3.2,0.8
		c0.8,0,1.5-0.1,2.2-0.3c0.7-0.2,1.2-0.6,1.7-1c0.5-0.5,0.8-1,1.1-1.7l6.7,0.4c-0.3,1.6-1,3-2.1,4.2c-1,1.2-2.4,2.1-4.1,2.8
		C195.6,47.5,193.7,47.8,191.5,47.8z"/>
	<rect x="208.3" y="12.4" class="st0" width="7.3" height="34.9"/>
	<rect x="221.3" y="21.1" class="st0" width="7.3" height="26.2"/>
	<path class="st0" d="M225,17.7c-1.1,0-2-0.4-2.8-1.1c-0.8-0.7-1.1-1.6-1.1-2.6s0.4-1.9,1.1-2.6c0.8-0.7,1.7-1.1,2.8-1.1
		s2,0.4,2.8,1.1c0.8,0.7,1.2,1.6,1.2,2.6s-0.4,1.9-1.2,2.6C227,17.4,226,17.7,225,17.7z"/>
	<path class="st0" d="M246.3,47.8c-2.7,0-5-0.5-6.9-1.6s-3.4-2.7-4.5-4.7c-1-2-1.6-4.4-1.6-7.2c0-2.7,0.5-5.1,1.6-7.1
		c1-2,2.5-3.6,4.4-4.8c1.9-1.1,4.1-1.7,6.7-1.7c1.7,0,3.3,0.3,4.8,0.8s2.8,1.4,3.9,2.5s2,2.5,2.6,4.2c0.6,1.7,0.9,3.6,0.9,5.8v2
		h-22.1v-4.5h15.3c0-1-0.2-2-0.7-2.8s-1.1-1.4-1.9-1.9s-1.7-0.7-2.8-0.7c-1.1,0-2.1,0.3-2.9,0.8c-0.8,0.5-1.5,1.2-2,2
		s-0.7,1.8-0.7,2.8V36c0,1.3,0.2,2.4,0.7,3.4c0.5,0.9,1.2,1.7,2.1,2.2c0.9,0.5,1.9,0.8,3.2,0.8c0.8,0,1.5-0.1,2.2-0.3
		c0.7-0.2,1.2-0.6,1.7-1c0.5-0.5,0.8-1,1.1-1.7l6.7,0.4c-0.3,1.6-1,3-2.1,4.2c-1,1.2-2.4,2.1-4.1,2.8
		C250.4,47.5,248.5,47.8,246.3,47.8z"/>
	<path class="st0" d="M263.1,47.3V21.1h7v4.6h0.3c0.5-1.6,1.3-2.9,2.4-3.7s2.4-1.3,3.9-1.3c0.4,0,0.8,0,1.2,0.1
		c0.4,0,0.8,0.1,1.1,0.2v6.4c-0.3-0.1-0.8-0.2-1.4-0.3s-1.2-0.1-1.7-0.1c-1.1,0-2,0.2-2.9,0.7c-0.8,0.5-1.5,1.1-2,1.9
		s-0.7,1.8-0.7,2.8v14.9H263.1z"/>
	<path class="st0" d="M293.8,47.3V12.4h13.8c2.6,0,4.9,0.5,6.8,1.5s3.3,2.4,4.3,4.2s1.5,3.8,1.5,6.1s-0.5,4.4-1.5,6.1
		c-1,1.8-2.4,3.2-4.3,4.1c-1.9,1-4.2,1.5-6.8,1.5h-8.8V30h7.6c1.4,0,2.6-0.2,3.5-0.7s1.6-1.2,2.1-2.1s0.7-1.9,0.7-3
		c0-1.2-0.2-2.2-0.7-3c-0.5-0.9-1.1-1.5-2.1-2c-0.9-0.5-2.1-0.7-3.5-0.7h-5v28.8H293.8z"/>
	<path class="st0" d="M324.7,47.3V21.1h7v4.6h0.3c0.5-1.6,1.3-2.9,2.4-3.7s2.4-1.3,3.9-1.3c0.4,0,0.8,0,1.2,0.1
		c0.4,0,0.8,0.1,1.1,0.2v6.4c-0.3-0.1-0.8-0.2-1.4-0.3S338,27,337.5,27c-1.1,0-2,0.2-2.9,0.7c-0.8,0.5-1.5,1.1-2,1.9
		s-0.7,1.8-0.7,2.8v14.9H324.7z"/>
	<path class="st0" d="M366.3,27.2c-1-2-2.5-3.6-4.5-4.7c-1.9-1.1-4.2-1.7-6.8-1.7c-2.6,0-4.9,0.6-6.9,1.7c-1.9,1.1-3.4,2.7-4.4,4.7
		s-1.6,4.4-1.6,7.1s0.5,5,1.6,7.1c1,2,2.5,3.6,4.4,4.7s4.2,1.7,6.9,1.7c2.6,0,4.9-0.6,6.8-1.7s3.4-2.7,4.5-4.7c1-2,1.6-4.4,1.6-7.1
		C367.8,31.6,367.3,29.2,366.3,27.2z M359.8,38.3c-0.4,1.2-1,2.1-1.8,2.8c-0.8,0.7-1.8,1-3,1s-2.2-0.3-3.1-1
		c-0.8-0.7-1.4-1.6-1.9-2.8c-0.4-1.2-0.6-2.5-0.6-4.1s0.2-2.9,0.6-4.1s1-2.1,1.9-2.8c0.8-0.7,1.9-1,3.1-1s2.2,0.3,3,1
		c0.8,0.7,1.4,1.6,1.8,2.8c0.4,1.2,0.6,2.5,0.6,4.1S360.3,37.1,359.8,38.3z"/>
	<g>
		<path class="st0" d="M15.4,3c0-1.7,1.2-3,2.6-3h36.1c1.4,0,2.6,1.3,2.6,3s-1.2,3-2.6,3v35.9c1.4,0,2.6,1.3,2.6,3s-1.2,3-2.6,3
			H39.9v-4.6c0-2.5-1.7-4.5-3.9-4.5c-2.1,0-3.9,2-3.9,4.5v4.5H18c-1.4,0-2.6-1.3-2.6-3s1.2-3,2.6-3V6C16.6,6,15.4,4.6,15.4,3z
			 M23.2,10.4v3c0,0.8,0.6,1.5,1.3,1.5h2.6c0.7,0,1.3-0.7,1.3-1.5v-3c0-0.8-0.6-1.5-1.3-1.5h-2.6C23.7,8.9,23.2,9.6,23.2,10.4z
			 M34.8,8.9c-0.7,0-1.3,0.7-1.3,1.5v3c0,0.8,0.6,1.5,1.3,1.5h2.6c0.7,0,1.3-0.7,1.3-1.5v-3c0-0.8-0.6-1.5-1.3-1.5H34.8z M43.8,10.4
			v3c0,0.8,0.6,1.5,1.3,1.5h2.6c0.7,0,1.3-0.7,1.3-1.5v-3c0-0.8-0.6-1.5-1.3-1.5h-2.6C44.4,8.9,43.8,9.6,43.8,10.4z M24.5,17.9
			c-0.7,0-1.3,0.7-1.3,1.5v3c0,0.8,0.6,1.5,1.3,1.5h2.6c0.7,0,1.3-0.7,1.3-1.5v-3c0-0.8-0.6-1.5-1.3-1.5H24.5z M33.5,19.4v3
			c0,0.8,0.6,1.5,1.3,1.5h2.6c0.7,0,1.3-0.7,1.3-1.5v-3c0-0.8-0.6-1.5-1.3-1.5h-2.6C34.1,17.9,33.5,18.6,33.5,19.4z M45.1,17.9
			c-0.7,0-1.3,0.7-1.3,1.5v3c0,0.8,0.6,1.5,1.3,1.5h2.6c0.7,0,1.3-0.7,1.3-1.5v-3c0-0.8-0.6-1.5-1.3-1.5H45.1z M41.9,35.8
			c1.1,0,2-1,1.7-2.2c-0.9-3.9-3.9-6.7-7.5-6.7s-6.7,2.9-7.5,6.7c-0.3,1.2,0.6,2.2,1.7,2.2H41.9z"/>
		<path class="st0" d="M61.4,4.3c-2.5,0-4.9,0.5-6,0.9c0,0,10.3,1.8,11.2,9.1c-7.9-11.6-16.4,2.4-16.4,2.4c1.8-0.5,6.9-1.9,10.3-1.3
			c2.3,0.4,4.6,2.6,4.5,2.5c-5.5,1.5-14.4,26.8-12.9,28.9c1.3,1.6,2.7,1,4,0.2c0.7-5.4,5.8-28.9,12.2-27l0,0c0.5,0.2,1,0.5,1.1,1
			c0.1,1-0.6,2.5-0.4,3.6c0.3,2.5,0.8,3.4,1.5,4.3c1.7-1,3.3-4.4,3.6-6.2c1.5,0.7,3.9,2.2,5.9,8c1-5.4-0.5-9.7-5.3-11.5
			c2.1-0.9,11.3,3.8,12.4,6.4c1.1-4.7-6.6-10.5-13-10.2c1.2-0.3,2.6,0.1,3.9-0.9c1.7-1.3,3.7-2.4,5.6-3.6
			c-6.3-2.8-12.1-1.4-12.5,1.5C70.6,5.8,65.8,4.3,61.4,4.3L61.4,4.3z"/>
		<path class="st0" d="M13.8,23.9c1.3,0,2.6,0.3,3.2,0.5c0,0-5.5,1-5.9,5c4.2-6.4,8.7,1.3,8.7,1.3c-0.9-0.3-3.7-1-5.5-0.7
			c-1.2,0.2-2.4,1.4-2.4,1.4c3,0.8,7.6,14.7,6.8,15.8c-0.7,0.9-1.4,0.6-2.1,0.1c-0.4-3-3.1-15.9-6.5-14.9l0,0
			c-0.3,0.1-0.5,0.3-0.6,0.6c0,0.5,0.3,1.4,0.2,2c-0.2,1.4-0.4,1.9-0.8,2.3C8,36.8,7.2,34.9,7,33.9c-0.8,0.4-2.1,1.2-3.1,4.4
			c-0.5-3,0.2-5.3,2.8-6.3c-1.1-0.5-6,2.1-6.6,3.5c-0.6-2.6,3.5-5.8,6.9-5.6c-0.7-0.2-1.4,0-2-0.5c-0.9-0.7-2-1.3-3-2
			c3.3-1.5,6.4-0.8,6.6,0.8C8.9,24.7,11.5,23.9,13.8,23.9L13.8,23.9z"/>
	</g>
</g>
</svg>
