<?xml version="1.0" encoding="utf-8"?>
<!-- Generator: Adobe Illustrator 26.2.1, SVG Export Plug-In . SVG Version: 6.00 Build 0)  -->
<svg version="1.1" id="Layer_1" xmlns="http://www.w3.org/2000/svg" xmlns:xlink="http://www.w3.org/1999/xlink" x="0px" y="0px"
	 viewBox="0 0 399.9 113.4" style="enable-background:new 0 0 399.9 113.4;" xml:space="preserve">
<style type="text/css">
	.st0{fill:#3A7C7C;}
</style>
<polygon class="st0" points="108.1,84 108.1,49.1 115.4,49.1 115.4,63.5 130.4,63.5 130.4,49.1 137.8,49.1 137.8,84 130.4,84 
	130.4,69.6 115.4,69.6 115.4,84 "/>
<path class="st0" d="M166.8,63.9c-1-2-2.5-3.6-4.5-4.7c-1.9-1.1-4.2-1.7-6.8-1.7s-4.9,0.6-6.9,1.7c-1.9,1.1-3.4,2.7-4.4,4.7
	c-1,2-1.6,4.4-1.6,7.1c0,2.7,0.5,5,1.6,7.1c1,2,2.5,3.6,4.4,4.7c1.9,1.1,4.2,1.7,6.9,1.7s4.9-0.6,6.8-1.7c1.9-1.1,3.4-2.7,4.5-4.7
	c1-2,1.6-4.4,1.6-7.1C168.4,68.3,167.9,65.9,166.8,63.9z M160.4,75c-0.4,1.2-1,2.1-1.8,2.8c-0.8,0.7-1.8,1-3,1c-1.2,0-2.2-0.3-3.1-1
	c-0.8-0.7-1.4-1.6-1.9-2.8c-0.4-1.2-0.6-2.5-0.6-4.1s0.2-2.9,0.6-4.1c0.4-1.2,1-2.1,1.9-2.8c0.8-0.7,1.9-1,3.1-1c1.2,0,2.2,0.3,3,1
	c0.8,0.7,1.4,1.6,1.8,2.8c0.4,1.2,0.6,2.5,0.6,4.1S160.8,73.8,160.4,75z"/>
<rect x="171.3" y="57.8" class="st0" width="15.8" height="5.5"/>
<path class="st0" d="M174.9,51.5h7.3v24.4c0,0.7,0.1,1.2,0.3,1.6c0.2,0.4,0.5,0.6,0.9,0.8c0.4,0.1,0.8,0.2,1.3,0.2
	c0.3,0,0.7,0,1-0.1c0.3-0.1,0.6-0.1,0.8-0.2l1.1,5.4c-0.4,0.1-0.9,0.2-1.5,0.4c-0.7,0.2-1.5,0.3-2.4,0.3c-1.7,0.1-3.3-0.2-4.6-0.7
	c-1.3-0.5-2.3-1.4-3-2.5c-0.7-1.1-1.1-2.5-1.1-4.3V51.5z"/>
<path class="st0" d="M203.4,84.5c-2.7,0-5-0.5-6.9-1.6c-1.9-1.1-3.4-2.7-4.5-4.7c-1-2-1.6-4.4-1.6-7.2c0-2.7,0.5-5.1,1.6-7.1
	c1-2,2.5-3.6,4.4-4.8c1.9-1.1,4.1-1.7,6.7-1.7c1.7,0,3.3,0.3,4.8,0.8c1.5,0.5,2.8,1.4,3.9,2.5c1.1,1.1,2,2.5,2.6,4.2
	c0.6,1.7,0.9,3.6,0.9,5.8v2h-22.1v-4.5h15.3c0-1-0.2-2-0.7-2.8c-0.5-0.8-1.1-1.4-1.9-1.9c-0.8-0.5-1.7-0.7-2.8-0.7
	c-1.1,0-2.1,0.3-2.9,0.8c-0.8,0.5-1.5,1.2-2,2c-0.5,0.8-0.7,1.8-0.7,2.8v4.3c0,1.3,0.2,2.4,0.7,3.4c0.5,0.9,1.2,1.7,2.1,2.2
	c0.9,0.5,1.9,0.8,3.2,0.8c0.8,0,1.5-0.1,2.2-0.3c0.7-0.2,1.2-0.6,1.7-1c0.5-0.5,0.8-1,1.1-1.7l6.7,0.4c-0.3,1.6-1,3-2.1,4.2
	c-1,1.2-2.4,2.1-4.1,2.8C207.5,84.2,205.6,84.5,203.4,84.5z"/>
<rect x="220.2" y="49.1" class="st0" width="7.3" height="34.9"/>
<rect x="233.2" y="57.8" class="st0" width="7.3" height="26.2"/>
<path class="st0" d="M236.9,54.4c-1.1,0-2-0.4-2.8-1.1c-0.8-0.7-1.1-1.6-1.1-2.6c0-1,0.4-1.9,1.1-2.6c0.8-0.7,1.7-1.1,2.8-1.1
	c1.1,0,2,0.4,2.8,1.1c0.8,0.7,1.2,1.6,1.2,2.6c0,1-0.4,1.9-1.2,2.6C238.9,54.1,237.9,54.4,236.9,54.4z"/>
<path class="st0" d="M258.2,84.5c-2.7,0-5-0.5-6.9-1.6c-1.9-1.1-3.4-2.7-4.5-4.7c-1-2-1.6-4.4-1.6-7.2c0-2.7,0.5-5.1,1.6-7.1
	c1-2,2.5-3.6,4.4-4.8c1.9-1.1,4.1-1.7,6.7-1.7c1.7,0,3.3,0.3,4.8,0.8c1.5,0.5,2.8,1.4,3.9,2.5c1.1,1.1,2,2.5,2.6,4.2
	c0.6,1.7,0.9,3.6,0.9,5.8v2h-22.1v-4.5h15.3c0-1-0.2-2-0.7-2.8c-0.5-0.8-1.1-1.4-1.9-1.9c-0.8-0.5-1.7-0.7-2.8-0.7
	c-1.1,0-2.1,0.3-2.9,0.8c-0.8,0.5-1.5,1.2-2,2c-0.5,0.8-0.7,1.8-0.7,2.8v4.3c0,1.3,0.2,2.4,0.7,3.4c0.5,0.9,1.2,1.7,2.1,2.2
	c0.9,0.5,1.9,0.8,3.2,0.8c0.8,0,1.5-0.1,2.2-0.3c0.7-0.2,1.2-0.6,1.7-1c0.5-0.5,0.8-1,1.1-1.7l6.7,0.4c-0.3,1.6-1,3-2.1,4.2
	c-1,1.2-2.4,2.1-4.1,2.8C262.3,84.2,260.4,84.5,258.2,84.5z"/>
<path class="st0" d="M275,84V57.8h7v4.6h0.3c0.5-1.6,1.3-2.9,2.4-3.7c1.1-0.8,2.4-1.3,3.9-1.3c0.4,0,0.8,0,1.2,0.1
	c0.4,0,0.8,0.1,1.1,0.2v6.4c-0.3-0.1-0.8-0.2-1.4-0.3c-0.6-0.1-1.2-0.1-1.7-0.1c-1.1,0-2,0.2-2.9,0.7c-0.8,0.5-1.5,1.1-2,1.9
	c-0.5,0.8-0.7,1.8-0.7,2.8V84H275z"/>
<path class="st0" d="M305.7,84V49.1h13.8c2.6,0,4.9,0.5,6.8,1.5c1.9,1,3.3,2.4,4.3,4.2c1,1.8,1.5,3.8,1.5,6.1c0,2.3-0.5,4.4-1.5,6.1
	c-1,1.8-2.4,3.2-4.3,4.1c-1.9,1-4.2,1.5-6.8,1.5h-8.8v-5.9h7.6c1.4,0,2.6-0.2,3.5-0.7c0.9-0.5,1.6-1.2,2.1-2.1
	c0.5-0.9,0.7-1.9,0.7-3c0-1.2-0.2-2.2-0.7-3c-0.5-0.9-1.1-1.5-2.1-2c-0.9-0.5-2.1-0.7-3.5-0.7h-5V84H305.7z"/>
<path class="st0" d="M336.6,84V57.8h7v4.6h0.3c0.5-1.6,1.3-2.9,2.4-3.7c1.1-0.8,2.4-1.3,3.9-1.3c0.4,0,0.8,0,1.2,0.1
	c0.4,0,0.8,0.1,1.1,0.2v6.4c-0.3-0.1-0.8-0.2-1.4-0.3c-0.6-0.1-1.2-0.1-1.7-0.1c-1.1,0-2,0.2-2.9,0.7c-0.8,0.5-1.5,1.1-2,1.9
	c-0.5,0.8-0.7,1.8-0.7,2.8V84H336.6z"/>
<path class="st0" d="M378.2,63.9c-1-2-2.5-3.6-4.5-4.7c-1.9-1.1-4.2-1.7-6.8-1.7c-2.6,0-4.9,0.6-6.9,1.7c-1.9,1.1-3.4,2.7-4.4,4.7
	c-1,2-1.6,4.4-1.6,7.1c0,2.7,0.5,5,1.6,7.1c1,2,2.5,3.6,4.4,4.7c1.9,1.1,4.2,1.7,6.9,1.7c2.6,0,4.9-0.6,6.8-1.7
	c1.9-1.1,3.4-2.7,4.5-4.7c1-2,1.6-4.4,1.6-7.1C379.7,68.3,379.2,65.9,378.2,63.9z M371.7,75c-0.4,1.2-1,2.1-1.8,2.8
	c-0.8,0.7-1.8,1-3,1c-1.2,0-2.2-0.3-3.1-1c-0.8-0.7-1.4-1.6-1.9-2.8c-0.4-1.2-0.6-2.5-0.6-4.1s0.2-2.9,0.6-4.1
	c0.4-1.2,1-2.1,1.9-2.8c0.8-0.7,1.9-1,3.1-1c1.2,0,2.2,0.3,3,1c0.8,0.7,1.4,1.6,1.8,2.8c0.4,1.2,0.6,2.5,0.6,4.1
	S372.2,73.8,371.7,75z"/>
<g>
	<path class="st0" d="M27.3,39.7c0-1.7,1.2-3,2.6-3H66c1.4,0,2.6,1.3,2.6,3c0,1.7-1.2,3-2.6,3v35.9c1.4,0,2.6,1.3,2.6,3
		s-1.2,3-2.6,3H51.8V80c0-2.5-1.7-4.5-3.9-4.5c-2.1,0-3.9,2-3.9,4.5v4.5H29.9c-1.4,0-2.6-1.3-2.6-3s1.2-3,2.6-3V42.7
		C28.5,42.7,27.3,41.3,27.3,39.7z M35.1,47.1v3c0,0.8,0.6,1.5,1.3,1.5h2.6c0.7,0,1.3-0.7,1.3-1.5v-3c0-0.8-0.6-1.5-1.3-1.5h-2.6
		C35.6,45.6,35.1,46.3,35.1,47.1z M46.7,45.6c-0.7,0-1.3,0.7-1.3,1.5v3c0,0.8,0.6,1.5,1.3,1.5h2.6c0.7,0,1.3-0.7,1.3-1.5v-3
		c0-0.8-0.6-1.5-1.3-1.5H46.7z M55.7,47.1v3c0,0.8,0.6,1.5,1.3,1.5h2.6c0.7,0,1.3-0.7,1.3-1.5v-3c0-0.8-0.6-1.5-1.3-1.5H57
		C56.3,45.6,55.7,46.3,55.7,47.1z M36.4,54.6c-0.7,0-1.3,0.7-1.3,1.5v3c0,0.8,0.6,1.5,1.3,1.5h2.6c0.7,0,1.3-0.7,1.3-1.5v-3
		c0-0.8-0.6-1.5-1.3-1.5H36.4z M45.4,56.1v3c0,0.8,0.6,1.5,1.3,1.5h2.6c0.7,0,1.3-0.7,1.3-1.5v-3c0-0.8-0.6-1.5-1.3-1.5h-2.6
		C46,54.6,45.4,55.3,45.4,56.1z M57,54.6c-0.7,0-1.3,0.7-1.3,1.5v3c0,0.8,0.6,1.5,1.3,1.5h2.6c0.7,0,1.3-0.7,1.3-1.5v-3
		c0-0.8-0.6-1.5-1.3-1.5H57z M53.8,72.5c1.1,0,2-1,1.7-2.2c-0.9-3.9-3.9-6.7-7.5-6.7c-3.6,0-6.7,2.9-7.5,6.7
		c-0.3,1.2,0.6,2.2,1.7,2.2H53.8z"/>
	<path class="st0" d="M73.3,41c-2.5,0-4.9,0.5-6,0.9c0,0,10.3,1.8,11.2,9.1c-7.9-11.6-16.4,2.4-16.4,2.4c1.8-0.5,6.9-1.9,10.3-1.3
		c2.3,0.4,4.6,2.6,4.5,2.5C71.4,56.1,62.5,81.4,64,83.5c1.3,1.6,2.7,1,4,0.2c0.7-5.4,5.8-28.9,12.2-27c0,0,0,0,0,0
		c0.5,0.2,1,0.5,1.1,1c0.1,1-0.6,2.5-0.4,3.6c0.3,2.5,0.8,3.4,1.5,4.3c1.7-1,3.3-4.4,3.6-6.2c1.5,0.7,3.9,2.2,5.9,8
		c1-5.4-0.5-9.7-5.3-11.5c2.1-0.9,11.3,3.8,12.4,6.4c1.1-4.7-6.6-10.5-13-10.2c1.2-0.3,2.6,0.1,3.9-0.9c1.7-1.3,3.7-2.4,5.6-3.6
		c-6.3-2.8-12.1-1.4-12.5,1.5C82.5,42.5,77.7,41,73.3,41L73.3,41z"/>
	<path class="st0" d="M25.7,60.6c1.3,0,2.6,0.3,3.2,0.5c0,0-5.5,1-5.9,5c4.2-6.4,8.7,1.3,8.7,1.3c-0.9-0.3-3.7-1-5.5-0.7
		c-1.2,0.2-2.4,1.4-2.4,1.4c3,0.8,7.6,14.7,6.8,15.8c-0.7,0.9-1.4,0.6-2.1,0.1c-0.4-3-3.1-15.9-6.5-14.9c0,0,0,0,0,0
		c-0.3,0.1-0.5,0.3-0.6,0.6c0,0.5,0.3,1.4,0.2,2c-0.2,1.4-0.4,1.9-0.8,2.3c-0.9-0.5-1.7-2.4-1.9-3.4c-0.8,0.4-2.1,1.2-3.1,4.4
		c-0.5-3,0.2-5.3,2.8-6.3c-1.1-0.5-6,2.1-6.6,3.5c-0.6-2.6,3.5-5.8,6.9-5.6c-0.7-0.2-1.4,0-2-0.5c-0.9-0.7-2-1.3-3-2
		c3.3-1.5,6.4-0.8,6.6,0.8C20.8,61.4,23.4,60.6,25.7,60.6L25.7,60.6z"/>
</g>
</svg>
